<?xml version="1.0" encoding="UTF-8" standalone="no"?>
<!-- Created with Inkscape (http://www.inkscape.org/) -->

<svg
   xmlns:dc="http://purl.org/dc/elements/1.1/"
   xmlns:cc="http://creativecommons.org/ns#"
   xmlns:rdf="http://www.w3.org/1999/02/22-rdf-syntax-ns#"
   xmlns:svg="http://www.w3.org/2000/svg"
   xmlns="http://www.w3.org/2000/svg"
   xmlns:sodipodi="http://sodipodi.sourceforge.net/DTD/sodipodi-0.dtd"
   xmlns:inkscape="http://www.inkscape.org/namespaces/inkscape"
   width="383.80545"
   height="214.75534"
   id="svg12819"
   version="1.1"
   inkscape:version="0.48.4 r9939"
   sodipodi:docname="notFound.svg"
   inkscape:export-filename="/home/kevin/Documents/Development/app screenshots/owlSearch.png"
   inkscape:export-xdpi="90"
   inkscape:export-ydpi="90">
  <defs
     id="defs12821" />
  <sodipodi:namedview
     id="base"
     pagecolor="#ffffff"
     bordercolor="#666666"
     borderopacity="1.0"
     inkscape:pageopacity="0.0"
     inkscape:pageshadow="2"
     inkscape:zoom="1.41521"
     inkscape:cx="388.73869"
     inkscape:cy="44.241833"
     inkscape:document-units="px"
     inkscape:current-layer="g15020"
     showgrid="false"
     fit-margin-top="10"
     fit-margin-left="0"
     fit-margin-right="0"
     fit-margin-bottom="10"
     inkscape:window-width="1920"
     inkscape:window-height="1056"
     inkscape:window-x="0"
     inkscape:window-y="24"
     inkscape:window-maximized="1" />
  <metadata
     id="metadata12824">
    <rdf:RDF>
      <cc:Work
         rdf:about="">
        <dc:format>image/svg+xml</dc:format>
        <dc:type
           rdf:resource="http://purl.org/dc/dcmitype/StillImage" />
        <dc:title />
      </cc:Work>
    </rdf:RDF>
  </metadata>
  <g
     inkscape:label="Layer 1"
     inkscape:groupmode="layer"
     id="layer1"
     transform="translate(-174.89943,-164.11232)">
    <g
       style="display:inline"
       id="g14777"
       transform="matrix(0.69639553,0,0,0.69639553,-479.44734,119.33528)">
      <g
         id="g15020"
         transform="matrix(0.63322219,0,0,0.63322219,-295.2311,987.63072)">
        <g
           id="g15082"
           transform="translate(0,82.828838)">
          <path
             sodipodi:type="arc"
             style="fill:none;stroke:#808080;stroke-width:46.75191879;stroke-linecap:butt;stroke-linejoin:miter;stroke-miterlimit:4;stroke-opacity:1;stroke-dasharray:none;display:inline"
             id="path14966-8"
             sodipodi:cx="1962.8733"
             sodipodi:cy="-378.12149"
             sodipodi:rx="136.36804"
             sodipodi:ry="136.36804"
             d="m 2099.2413,-378.12149 c 0,75.31399 -61.054,136.36804 -136.368,136.36804 -75.314,0 -136.3681,-61.05405 -136.3681,-136.36804 0,-75.31399 61.0541,-136.36804 136.3681,-136.36804 75.314,0 136.368,61.05405 136.368,136.36804 z"
             transform="matrix(1.2126303,0,0,1.2126303,246.51638,-866.06892)" />
          <path
             sodipodi:type="arc"
             style="fill:#808080;fill-opacity:1;fill-rule:evenodd;stroke:none"
             id="path14988"
             sodipodi:cx="2108.5391"
             sodipodi:cy="-525.33698"
             sodipodi:rx="41.840195"
             sodipodi:ry="41.840195"
             d="m 2150.3793,-525.33698 c 0,23.10771 -18.7325,41.8402 -41.8402,41.8402 -23.1077,0 -41.8402,-18.73249 -41.8402,-41.8402 0,-23.1077 18.7325,-41.84019 41.8402,-41.84019 23.1077,0 41.8402,18.73249 41.8402,41.84019 z"
             transform="matrix(1.4359656,0,0,1.4359656,-645.94974,-626.80514)" />
          <path
             inkscape:connector-curvature="0"
             style="fill:#808080;fill-opacity:1;stroke:none"
             d="m 2089.4375,-438.03125 0,103.3125 17.9063,0 c 7.3889,-17.02228 24.323,-28.9375 44.0624,-28.9375 19.7395,0 36.7049,11.91522 44.0938,28.9375 l 17.9062,0 0,-103.3125 -123.9687,0 z"
             transform="matrix(1.4359656,0,0,1.4359656,-707.51452,-787.38294)"
             id="rect14986" />
          <path
             sodipodi:type="arc"
             style="fill:none;stroke:#808080;stroke-width:46.75191879;stroke-linecap:butt;stroke-linejoin:miter;stroke-miterlimit:4;stroke-opacity:1;stroke-dasharray:none;display:inline"
             id="path14966-8-2"
             sodipodi:cx="1962.8733"
             sodipodi:cy="-378.12149"
             sodipodi:rx="136.36804"
             sodipodi:ry="136.36804"
             d="m 2099.2413,-378.12149 c 0,75.31399 -61.054,136.36804 -136.368,136.36804 -75.314,0 -136.3681,-61.05405 -136.3681,-136.36804 0,-75.31399 61.0541,-136.36804 136.3681,-136.36804 75.314,0 136.368,61.05405 136.368,136.36804 z"
             transform="matrix(1.2126303,0,0,1.2126303,-236.42299,-866.06892)" />
        </g>
        <rect
           style="fill:#808080;fill-opacity:1;stroke:none"
           id="rect15091"
           width="129.21298"
           height="129.21298"
           x="856.36871"
           y="-2520.2727"
           transform="matrix(0.70710678,0.70710678,-0.70710678,0.70710678,0,0)" />
        <path
           style="fill:#808080;fill-opacity:1;fill-rule:evenodd;stroke:none"
           d="m 103.71875,171.6875 -33.5625,16.21875 c 2.149792,8.13106 9.568126,14.125 18.375,14.125 10.489627,0 18.96875,-8.51037 18.96875,-19 0,-4.26924 -1.40349,-8.17188 -3.78125,-11.34375 z"
           transform="matrix(2.267712,0,0,2.267712,1943.0825,-1656.8514)"
           id="path15093"
           inkscape:connector-curvature="0" />
        <path
           inkscape:connector-curvature="0"
           style="fill:#808080;fill-opacity:1;fill-rule:evenodd;stroke:none;display:inline"
           d="m 2592.9883,-1268.3362 76.1101,36.7795 c -4.8751,18.4389 -21.6977,32.0314 -41.6692,32.0314 -23.7874,0 -43.0156,-19.2991 -43.0156,-43.0865 0,-9.6814 3.1827,-18.5315 8.5747,-25.7244 z"
           id="path15093-2" />
      </g>
    </g>
  </g>
</svg>
